<svg width="24" height="24" viewBox="0 0 24 24" fill="none" xmlns="http://www.w3.org/2000/svg">
<path d="M5.86937 20.4908C5.82681 20.8588 5.65047 21.1983 5.3739 21.4447C5.09732 21.6912 4.73981 21.8273 4.36938 21.8273C3.99894 21.8273 3.64143 21.6912 3.36485 21.4447C3.08828 21.1983 2.91194 20.8588 2.86938 20.4908V16.2108C2.84491 15.9993 2.86546 15.785 2.92967 15.582C2.99389 15.379 3.10032 15.1918 3.24197 15.0328C3.38363 14.8738 3.55731 14.7466 3.75161 14.6595C3.94591 14.5724 4.15644 14.5273 4.36938 14.5273C4.58231 14.5273 4.79284 14.5724 4.98714 14.6595C5.18144 14.7466 5.35512 14.8738 5.49678 15.0328C5.63843 15.1918 5.74486 15.379 5.80908 15.582C5.87329 15.785 5.89384 15.9993 5.86937 16.2108V20.4908Z" fill="url(#paint0_linear_7936_295)"/>
<path d="M11 20.4896C10.9574 20.8575 10.7811 21.197 10.5045 21.4435C10.2279 21.6899 9.87043 21.8261 9.5 21.8261C9.12957 21.8261 8.77205 21.6899 8.49548 21.4435C8.2189 21.197 8.04256 20.8575 8 20.4896V16.2096C8.04256 15.8416 8.2189 15.5021 8.49548 15.2556C8.77205 15.0092 9.12957 14.873 9.5 14.873C9.87043 14.873 10.2279 15.0092 10.5045 15.2556C10.7811 15.5021 10.9574 15.8416 11 16.2096V20.4896Z" fill="url(#paint1_linear_7936_295)"/>
<path d="M16.0625 20.4896C16.0199 20.8575 15.8436 21.197 15.567 21.4435C15.2904 21.6899 14.9329 21.8261 14.5625 21.8261C14.1921 21.8261 13.8346 21.6899 13.558 21.4435C13.2814 21.197 13.1051 20.8575 13.0625 20.4896V16.2096C13.1051 15.8416 13.2814 15.5021 13.558 15.2556C13.8346 15.0092 14.1921 14.873 14.5625 14.873C14.9329 14.873 15.2904 15.0092 15.567 15.2556C15.8436 15.5021 16.0199 15.8416 16.0625 16.2096V20.4896Z" fill="url(#paint2_linear_7936_295)"/>
<path d="M21.1506 20.4908C21.1081 20.8588 20.9317 21.1983 20.6551 21.4447C20.3786 21.6912 20.0211 21.8273 19.6506 21.8273C19.2802 21.8273 18.9227 21.6912 18.6461 21.4447C18.3695 21.1983 18.1932 20.8588 18.1506 20.4908V16.2108C18.1262 15.9993 18.1467 15.785 18.2109 15.582C18.2751 15.379 18.3816 15.1918 18.5232 15.0328C18.6649 14.8738 18.8386 14.7466 19.0329 14.6595C19.2272 14.5724 19.4377 14.5273 19.6506 14.5273C19.8636 14.5273 20.0741 14.5724 20.2684 14.6595C20.4627 14.7466 20.6364 14.8738 20.778 15.0328C20.9197 15.1918 21.0261 15.379 21.0903 15.582C21.1545 15.785 21.1751 15.9993 21.1506 16.2108V20.4908Z" fill="url(#paint3_linear_7936_295)"/>
<path d="M9.4475 13.4809C10.2814 13.4809 10.9575 12.8049 10.9575 11.9709C10.9575 11.137 10.2814 10.4609 9.4475 10.4609C8.61355 10.4609 7.9375 11.137 7.9375 11.9709C7.9375 12.8049 8.61355 13.4809 9.4475 13.4809Z" fill="url(#paint4_linear_7936_295)"/>
<path d="M14.5491 13.4809C15.383 13.4809 16.0591 12.8049 16.0591 11.9709C16.0591 11.137 15.383 10.4609 14.5491 10.4609C13.7151 10.4609 13.0391 11.137 13.0391 11.9709C13.0391 12.8049 13.7151 13.4809 14.5491 13.4809Z" fill="url(#paint5_linear_7936_295)"/>
<path d="M14.5491 9.25047C15.383 9.25047 16.0591 8.57442 16.0591 7.74047C16.0591 6.90652 15.383 6.23047 14.5491 6.23047C13.7151 6.23047 13.0391 6.90652 13.0391 7.74047C13.0391 8.57442 13.7151 9.25047 14.5491 9.25047Z" fill="url(#paint6_linear_7936_295)"/>
<path d="M19.6428 13.4809C20.4768 13.4809 21.1528 12.8049 21.1528 11.9709C21.1528 11.137 20.4768 10.4609 19.6428 10.4609C18.8089 10.4609 18.1328 11.137 18.1328 11.9709C18.1328 12.8049 18.8089 13.4809 19.6428 13.4809Z" fill="url(#paint7_linear_7936_295)"/>
<path d="M19.6428 9.25047C20.4768 9.25047 21.1528 8.57442 21.1528 7.74047C21.1528 6.90652 20.4768 6.23047 19.6428 6.23047C18.8089 6.23047 18.1328 6.90652 18.1328 7.74047C18.1328 8.57442 18.8089 9.25047 19.6428 9.25047Z" fill="url(#paint8_linear_7936_295)"/>
<path d="M19.6428 5.02C20.4768 5.02 21.1528 4.34395 21.1528 3.51C21.1528 2.67605 20.4768 2 19.6428 2C18.8089 2 18.1328 2.67605 18.1328 3.51C18.1328 4.34395 18.8089 5.02 19.6428 5.02Z" fill="url(#paint9_linear_7936_295)"/>
<defs>
<linearGradient id="paint0_linear_7936_295" x1="4.36938" y1="14.5273" x2="4.36938" y2="21.8273" gradientUnits="userSpaceOnUse">
<stop stop-color="#10E482"/>
<stop offset="1" stop-color="#68FFB9"/>
</linearGradient>
<linearGradient id="paint1_linear_7936_295" x1="9.5" y1="14.873" x2="9.5" y2="21.8261" gradientUnits="userSpaceOnUse">
<stop stop-color="#10E482"/>
<stop offset="1" stop-color="#68FFB9"/>
</linearGradient>
<linearGradient id="paint2_linear_7936_295" x1="14.5625" y1="14.873" x2="14.5625" y2="21.8261" gradientUnits="userSpaceOnUse">
<stop stop-color="#10E482"/>
<stop offset="1" stop-color="#68FFB9"/>
</linearGradient>
<linearGradient id="paint3_linear_7936_295" x1="19.6506" y1="14.5273" x2="19.6506" y2="21.8273" gradientUnits="userSpaceOnUse">
<stop stop-color="#10E482"/>
<stop offset="1" stop-color="#68FFB9"/>
</linearGradient>
<linearGradient id="paint4_linear_7936_295" x1="9.4475" y1="10.4609" x2="9.4475" y2="13.4809" gradientUnits="userSpaceOnUse">
<stop stop-color="#9EFFD2"/>
<stop offset="0.484375" stop-color="#7CFFC2"/>
<stop offset="1" stop-color="#F3FFFA"/>
</linearGradient>
<linearGradient id="paint5_linear_7936_295" x1="14.5491" y1="10.4609" x2="14.5491" y2="13.4809" gradientUnits="userSpaceOnUse">
<stop stop-color="#7DFFC2"/>
<stop offset="1" stop-color="#8BFFC9"/>
</linearGradient>
<linearGradient id="paint6_linear_7936_295" x1="14.5491" y1="6.23047" x2="14.5491" y2="9.25047" gradientUnits="userSpaceOnUse">
<stop stop-color="#9EFFD2"/>
<stop offset="0.484375" stop-color="#7CFFC2"/>
<stop offset="1" stop-color="#F3FFFA"/>
</linearGradient>
<linearGradient id="paint7_linear_7936_295" x1="19.6428" y1="10.4609" x2="19.6428" y2="13.4809" gradientUnits="userSpaceOnUse">
<stop stop-color="#7DFFC2"/>
<stop offset="1" stop-color="#8BFFC9"/>
</linearGradient>
<linearGradient id="paint8_linear_7936_295" x1="19.6428" y1="6.23047" x2="19.6428" y2="9.25047" gradientUnits="userSpaceOnUse">
<stop stop-color="#7DFFC2"/>
<stop offset="1" stop-color="#8BFFC9"/>
</linearGradient>
<linearGradient id="paint9_linear_7936_295" x1="19.6428" y1="2" x2="19.6428" y2="5.02" gradientUnits="userSpaceOnUse">
<stop stop-color="#9EFFD2"/>
<stop offset="0.484375" stop-color="#7CFFC2"/>
<stop offset="1" stop-color="#F3FFFA"/>
</linearGradient>
</defs>
</svg>
