<svg width="191" height="144" viewBox="0 0 191 144" fill="none" xmlns="http://www.w3.org/2000/svg">
<path d="M0.984375 0.390855C0.984375 0.390855 81.715 0.188055 119.615 0.465455C142.472 0.635455 160.746 10.1702 175.228 28.1241C206.314 66.6691 188.178 129.827 133.519 141.807C127.158 143.203 120.418 143.137 113.847 143.239C105.142 143.373 96.293 143.925 87.751 142.66C69.46 139.955 53.129 122.276 52.628 103.054C52.517 98.917 53.525 99.3981 50.591 97.7691C37.7126 90.6231 26.6092 73.922 24.9569 59.869C24.3694 54.879 25.446 53.1171 22.9796 51.8611C12.2996 43.0421 3.42397 26.2181 2.24297 12.8161L0.984375 0.390855ZM69.532 101.831C70.96 114.939 80.746 127.411 96.758 127.367H119.01C140.191 127.375 160.96 113.937 169.639 93.2001C184.823 56.9191 158.297 16.8691 118.992 16.8241C108.861 16.8121 98.73 16.8301 88.598 16.8211C68.548 16.8001 48.497 16.7701 28.4463 16.7461C25.5087 16.7401 22.571 16.7461 19.5409 16.7461C21.2886 29.9521 30.3998 42.2551 46.848 41.9741L118.87 41.882C133.937 41.906 147.083 53.4811 148.562 67.9181C150.242 84.3221 140.146 98.2671 124.339 101.253C122.153 101.664 119.887 101.801 117.659 101.807C101.718 101.855 85.774 101.834 69.535 101.834L69.532 101.831ZM41.4287 58.9951C41.4287 58.9951 45.3446 84.688 68.658 84.593C68.658 84.593 114.354 84.6381 119.469 84.3931C124.632 84.1461 128.521 81.6791 130.665 76.8801C132.657 72.4221 132.153 68.1691 129.18 64.2501C125.971 60.0271 121.417 59.1141 116.496 59.1021L41.4287 58.9951Z" fill="#E32653"/>
<path d="M0.984375 0.390855C0.984375 0.390855 81.715 0.188055 119.615 0.465455C142.472 0.635455 160.746 10.1702 175.228 28.1241C206.314 66.6691 188.178 129.827 133.519 141.807C127.158 143.203 120.418 143.137 113.847 143.239C105.142 143.373 96.293 143.925 87.751 142.66C69.46 139.955 53.129 122.276 52.628 103.054C52.517 98.917 53.525 99.3981 50.591 97.7691C37.7126 90.6231 26.6092 73.922 24.9569 59.869C24.3694 54.879 25.446 53.1171 22.9796 51.8611C12.2996 43.0421 3.42397 26.2181 2.24297 12.8161L0.984375 0.390855ZM69.532 101.831C70.96 114.939 80.746 127.411 96.758 127.367H119.01C140.191 127.375 160.96 113.937 169.639 93.2001C184.823 56.9191 158.297 16.8691 118.992 16.8241C108.861 16.8121 98.73 16.8301 88.598 16.8211C68.548 16.8001 48.497 16.7701 28.4463 16.7461C25.5087 16.7401 22.571 16.7461 19.5409 16.7461C21.2886 29.9521 30.3998 42.2551 46.848 41.9741L118.87 41.882C133.937 41.906 147.083 53.4811 148.562 67.9181C150.242 84.3221 140.146 98.2671 124.339 101.253C122.153 101.664 119.887 101.801 117.659 101.807C101.718 101.855 85.774 101.834 69.535 101.834L69.532 101.831ZM41.4287 58.9951C41.4287 58.9951 45.3446 84.688 68.658 84.593C68.658 84.593 114.354 84.6381 119.469 84.3931C124.632 84.1461 128.521 81.6791 130.665 76.8801C132.657 72.4221 132.153 68.1691 129.18 64.2501C125.971 60.0271 121.417 59.1141 116.496 59.1021L41.4287 58.9951Z" fill="url(#paint0_linear_7935_355)" fill-opacity="0.4"/>
<defs>
<linearGradient id="paint0_linear_7935_355" x1="-6.90713" y1="-0.274145" x2="1.11557" y2="151.342" gradientUnits="userSpaceOnUse">
<stop/>
<stop offset="0.956462" stop-color="#5B5151" stop-opacity="0.34"/>
</linearGradient>
</defs>
</svg>
