<svg width="162" height="145" viewBox="0 0 162 145" fill="none" xmlns="http://www.w3.org/2000/svg">
<path d="M134.559 5.13737C134.546 7.13428 133.768 8.35352 132.859 9.55299C123.171 22.2528 113.516 34.979 103.795 47.6591C102.602 49.2144 101.89 50.6116 102.325 52.7403C102.931 55.7126 101.646 58.3159 99.8338 60.695C91.8989 71.1277 83.9969 81.5868 76.0883 92.0393C74.8032 93.7396 73.4917 95.4202 72.2329 97.1337C70.3678 99.6645 67.8239 101.101 64.7593 101.332C63.2633 101.444 62.4065 102.03 61.5629 103.151C52.0661 115.693 42.5362 128.201 33.0064 140.723C32.3144 141.633 31.6554 142.595 30.8513 143.405C28.9137 145.356 26.0864 145.514 23.905 143.9C21.7763 142.325 21.1304 139.458 22.4485 137.085C22.9626 136.162 23.6546 135.332 24.3004 134.489C33.8698 121.901 43.426 109.306 53.048 96.7581C54.03 95.4795 54.3661 94.3657 54.0366 92.7379C53.4105 89.6601 54.5704 86.9712 56.4355 84.513C64.0739 74.4691 71.6727 64.3989 79.2913 54.3418C80.9257 52.1867 82.5668 50.0382 84.2012 47.8897C85.974 45.5501 88.2807 44.0541 91.2332 43.8893C92.9599 43.7905 94.0078 43.0062 95.0162 41.6749C104.744 28.7972 114.531 15.9655 124.311 3.12728C126.525 0.220882 128.871 -0.563384 131.488 0.675625C133.564 1.65101 134.486 3.35136 134.566 5.15714L134.559 5.13737Z" fill="#199AFE"/>
<path d="M112.997 70.252C98.3263 89.6609 83.6361 109.05 68.9526 128.446C66.9754 131.056 64.9258 133.619 63.0475 136.302C60.7606 139.571 62.2698 143.788 66.0066 144.704C68.7878 145.383 70.6595 143.966 72.261 141.844C86.6216 122.824 101.015 103.824 115.402 84.8169C117.722 81.7457 120.081 78.7009 122.342 75.5902C123.66 73.7713 123.713 71.7348 122.639 69.7906C121.657 68.0178 120.042 67.1149 117.972 67.1281C115.659 67.1347 114.275 68.5582 112.997 70.2585V70.252Z" fill="#199AFE"/>
<path d="M36.6829 77.3286C38.7852 78.2842 40.7096 77.8163 42.377 76.3466C43.0427 75.76 43.5567 74.989 44.0971 74.2706C59.8286 53.504 75.56 32.7375 91.2849 11.9643C92.2735 10.6594 93.3213 9.38084 94.1583 7.98366C95.5555 5.64404 94.9294 2.7706 92.8205 1.16253C90.6324 -0.504863 87.871 -0.379644 85.8741 1.54477C85.2348 2.16428 84.7076 2.91559 84.1606 3.62736C79.6527 9.56537 75.158 15.5166 70.6567 21.4612C58.84 37.074 47.0299 52.6934 35.2 68.2996C34.2444 69.565 33.381 70.837 33.4601 72.5175C33.5392 74.7781 34.62 76.3993 36.6697 77.3286H36.6829Z" fill="#1CBD77"/>
<path d="M8.09539 74.1044C12.0497 68.7793 15.9908 63.4476 19.9912 58.162C32.5922 41.5145 45.2195 24.8867 57.8271 8.24581C58.3675 7.52745 58.9475 6.82227 59.3758 6.038C60.371 4.22562 59.9163 2.18917 58.3345 0.983111C56.7331 -0.236126 54.6702 -0.163631 53.1544 1.22037C52.6733 1.65534 52.2911 2.20235 51.8956 2.72299C35.2415 24.6165 18.5874 46.5101 1.94649 68.4168C1.40607 69.1286 0.839287 69.8535 0.443859 70.651C-0.926959 73.419 1.02382 76.5231 4.2861 76.5494C5.96008 76.6087 7.08705 75.4686 8.09539 74.1044Z" fill="#199AFE"/>
<path d="M157.688 68.4792C155.803 68.4529 154.735 69.6392 153.72 70.9902C137.066 93.1144 120.399 115.239 103.738 137.363C101.596 140.21 101.537 142.523 103.574 144.065C105.972 145.884 108.305 144.79 110.184 142.24C117.532 132.288 125.045 122.455 132.486 112.569C141.653 100.397 150.821 88.2177 159.988 76.0451C160.832 74.9247 161.701 73.8307 161.728 72.4533C161.642 70.2191 159.823 68.5056 157.681 68.4727L157.688 68.4792Z" fill="#1CBD77"/>
</svg>
